<svg xmlns="http://www.w3.org/2000/svg" xmlns:xlink="http://www.w3.org/1999/xlink" width="166" height="27" viewBox="0 0 166 27">
  <defs>
    <polygon id="logo2-a" points="0 .384 12.267 .384 12.267 27 0 27"/>
    <polygon id="logo2-c" points="0 27.616 165.886 27.616 165.886 1 0 1"/>
  </defs>
  <g fill="none" fill-rule="evenodd" transform="translate(0 -1)">
    <g transform="translate(0 .616)">
      <mask id="logo2-b" fill="#fff">
        <use xlink:href="#logo2-a"/>
      </mask>
      <path fill="#8E9AA8" d="M10.0679,26.5371 L9.4509,24.8011 C8.7559,26.2671 7.2519,27.0001 5.5159,27.0001 C2.1219,27.0001 -0.0001,24.5701 -0.0001,21.0981 L-0.0001,6.2861 C-0.0001,3.0841 2.3919,0.3841 6.1719,0.3841 C9.9519,0.3841 12.0739,3.0071 12.0739,6.2861 L12.0739,9.7191 L8.2159,9.7191 L8.2159,6.0541 C8.2159,4.9741 7.5609,4.0871 6.1719,4.0871 C4.8219,4.0871 4.1279,5.0131 4.1279,6.0931 L4.1279,21.3681 C4.1279,22.4871 4.8599,23.4121 6.2109,23.4121 C7.5989,23.4121 8.2939,22.4871 8.2939,21.3681 L8.2939,16.7781 L6.2879,16.7781 L6.2879,13.6921 L12.2669,13.6921 L12.2669,26.5371 L10.0679,26.5371 Z" mask="url(#logo2-b)"/>
    </g>
    <path fill="#8E9AA8" d="M21.0249 8.2134L19.5209 18.7054 22.2979 18.7054 21.0249 8.2134zM23.4169 27.1534L22.7609 22.1384 19.0189 22.1384 18.2479 27.1534 14.5059 27.1534 18.7879 1.4634 23.3009 1.4634 27.5829 27.1534 23.4169 27.1534zM37.2271 6.6318C37.2271 5.5518 36.8031 4.9728 35.8381 4.9728L33.7171 4.9728 33.7171 13.1118 35.6841 13.1118C36.6871 13.1118 37.2271 12.5338 37.2271 11.2988L37.2271 6.6318zM39.5801 27.2688C37.9981 27.2688 37.3811 25.7258 37.3811 23.7198L37.3811 18.2038C37.3811 17.1628 36.8411 16.3138 35.7231 16.3138L33.7171 16.3138 33.7171 27.1528 29.6281 27.1528 29.6281 1.4628 36.1851 1.4628C39.0401 1.4628 41.2391 3.0448 41.2391 6.5158L41.2391 11.0678C41.2391 12.8038 40.4671 14.0768 38.8091 14.6938 40.4671 15.2728 41.3161 16.6608 41.3161 18.2428L41.3161 23.4888C41.3161 24.6458 41.5861 25.4558 42.0871 26.1118L42.0871 27.2688 39.5801 27.2688z"/>
    <polygon fill="#8E9AA8" points="50.19 16.815 50.19 27.153 46.1 27.153 46.1 16.815 41.471 1.462 45.638 1.462 48.377 12.225 51.038 1.462 55.089 1.462"/>
    <polygon fill="#FEFEFE" points="62.419 27.153 62.419 1.463 66.508 1.463 66.508 23.45 72.41 23.45 72.41 27.153"/>
    <polygon fill="#FEFEFE" points="74.725 27.153 74.725 1.463 84.986 1.463 84.986 5.089 78.814 5.089 78.814 12.186 83.096 12.186 83.096 15.581 78.814 15.581 78.814 23.411 84.986 23.411 84.986 27.153"/>
    <mask id="logo2-d" fill="#fff">
      <use xlink:href="#logo2-c"/>
    </mask>
    <polygon fill="#FEFEFE" points="87.649 27.153 91.738 27.153 91.738 1.463 87.649 1.463" mask="url(#logo2-d)"/>
    <path fill="#FEFEFE" d="M104.8931,27.1533 L104.2761,25.4173 C103.5811,26.8833 102.0771,27.6163 100.3411,27.6163 C96.9471,27.6163 94.8251,25.1863 94.8251,21.7143 L94.8251,6.9023 C94.8251,3.7003 97.2171,1.0003 100.9971,1.0003 C104.7771,1.0003 106.8991,3.6233 106.8991,6.9023 L106.8991,10.3353 L103.0411,10.3353 L103.0411,6.6703 C103.0411,5.5903 102.3861,4.7033 100.9971,4.7033 C99.6471,4.7033 98.9531,5.6293 98.9531,6.7093 L98.9531,21.9843 C98.9531,23.1033 99.6851,24.0283 101.0361,24.0283 C102.4241,24.0283 103.1191,23.1033 103.1191,21.9843 L103.1191,17.3943 L101.1131,17.3943 L101.1131,14.3083 L107.0921,14.3083 L107.0921,27.1533 L104.8931,27.1533 Z" mask="url(#logo2-d)"/>
    <polygon fill="#FEFEFE" points="118.435 27.153 118.435 16.352 114.115 16.352 114.115 27.153 110.026 27.153 110.026 1.463 114.115 1.463 114.115 12.611 118.435 12.611 118.435 1.463 122.524 1.463 122.524 27.153" mask="url(#logo2-d)"/>
    <polygon fill="#FEFEFE" points="132.786 5.205 132.786 27.154 128.697 27.154 128.697 5.205 124.724 5.205 124.724 1.463 136.682 1.463 136.682 5.205" mask="url(#logo2-d)"/>
    <path fill="#FEFEFE" d="M146.0957,6.7861 C146.0957,5.5521 145.3627,4.7031 144.0897,4.7031 C142.8167,4.7031 142.0837,5.5521 142.0837,6.7861 L142.0837,21.8301 C142.0837,23.0641 142.8167,23.9131 144.0897,23.9131 C145.3627,23.9131 146.0957,23.0641 146.0957,21.8301 L146.0957,6.7861 Z M144.0897,27.6161 C140.3867,27.6161 137.9567,25.1091 137.9567,21.5211 L137.9567,7.0951 C137.9567,3.5461 140.3867,1.0001 144.0897,1.0001 C147.7927,1.0001 150.2227,3.5461 150.2227,7.0951 L150.2227,21.5211 C150.2227,25.1091 147.7927,27.6161 144.0897,27.6161 Z" mask="url(#logo2-d)"/>
    <polygon fill="#FEFEFE" points="162.723 27.153 158.403 15.504 156.975 11.569 156.975 27.153 153.272 27.153 153.272 1.463 156.898 1.463 160.91 13.228 162.222 17.201 162.222 1.463 165.886 1.463 165.886 27.153" mask="url(#logo2-d)"/>
  </g>
</svg>
