<svg xmlns="http://www.w3.org/2000/svg" xmlns:xlink="http://www.w3.org/1999/xlink" width="50" height="53" viewBox="0 0 50 53">
  <defs>
    <polygon id="logo-a" points="0 .177 24.224 .177 24.224 52 0 52"/>
    <polygon id="logo-c" points=".074 .077 19.798 .077 19.798 49.025 .074 49.025"/>
  </defs>
  <g fill="none" fill-rule="evenodd">
    <g transform="translate(0 .823)">
      <mask id="logo-b" fill="#fff">
        <use xlink:href="#logo-a"/>
      </mask>
      <path fill="#8E9AA8" d="M18.6743,51.0249 L17.6993,47.6499 C16.3493,50.4249 13.4993,51.9999 10.6503,51.9999 C4.1253,51.9999 0.0003,47.2749 0.0003,40.7509 L0.0003,11.3519 C0.0003,5.4269 4.9493,0.1769 12.0743,0.1769 C19.1993,0.1769 23.8493,5.4269 23.8493,11.3519 L23.8493,19.6009 L14.7743,19.6009 L14.7743,11.2019 C14.7743,9.7759 13.8743,8.8769 12.2243,8.8769 C10.6503,8.8769 9.7493,9.7759 9.7493,11.2019 L9.7493,41.1259 C9.7493,42.5499 10.7243,43.5999 12.2993,43.5999 C13.9493,43.5999 14.9243,42.5499 14.9243,41.1259 L14.9243,32.9509 L12.3743,32.9509 L12.3743,26.2009 L24.2243,26.2009 L24.2243,51.0249 L18.6743,51.0249 Z" mask="url(#logo-b)"/>
    </g>
    <g transform="translate(30 2.823)">
      <mask id="logo-d" fill="#fff">
        <use xlink:href="#logo-c"/>
      </mask>
      <polygon fill="#FEFEFE" points=".074 49.025 .074 .077 9.674 .077 9.674 40.475 19.798 40.475 19.798 49.025" mask="url(#logo-d)"/>
    </g>
  </g>
</svg>
