<svg xmlns="http://www.w3.org/2000/svg" width="1044" height="17" viewBox="0 0 1044 17">
  <g fill="none" fill-rule="evenodd" transform="matrix(-1 0 0 1 1054 0)">
    <polygon fill="#FFF" points="969.5 .5 977.5 .5 977.5 17 969.5 17"/>
    <polygon fill="#FFF" points="1006 .5 1014.5 .5 1014.5 17 1006 17"/>
    <path fill="#161F28" d="M0.5,5 L959,5 L959,2 C959.172255,1.49441189 959.338921,1.16107856 959.5,1 C959.661079,0.838921441 959.994412,0.672254774 960.5,0.5 L968.5,0.5 L968.5,17 L961,17 C960.206936,16.8218685 959.706936,16.6552018 959.5,16.5 C959.293064,16.3447982 959.126398,16.0114648 959,15.5 L959,12 L0.5,12 L0.5,5 Z"/>
    <polygon fill="#161F28" points="978.5 .5 978.5 17 1005.5 17 1005.5 .5"/>
    <path fill="#161F28" d="M1015.5,0.5 L1015.5,17 L1022,17 C1022.49051,16.8428277 1022.82384,16.676161 1023,16.5 C1023.17616,16.323839 1023.34283,15.823839 1023.5,15 L1023.5,13 L1036,13 C1036.53263,12.8453819 1036.86596,12.6787153 1037,12.5 C1037.13404,12.3212847 1037.3007,11.8212847 1037.5,11 L1040.5,11 C1040.61179,11.7784559 1040.77846,12.2784559 1041,12.5 C1041.22154,12.7215441 1041.72154,12.8882107 1042.5,13 L1049,13 C1050.48226,12.1844076 1051.48226,11.5177409 1052,11 C1052.51774,10.4822591 1053.01774,9.64892578 1053.5,8.5 C1052.97142,7.25761467 1052.47142,6.42428134 1052,6 C1051.52858,5.57571866 1050.36191,4.909052 1048.5,4 L1042,4 C1041.50112,4.38702991 1041.16778,4.72036324 1041,5 C1040.83222,5.27963676 1040.66555,5.77963676 1040.5,6.5 L1037.5,6.5 C1037.33682,5.78358609 1037.17015,5.28358609 1037,5 C1036.82985,4.71641391 1036.49652,4.38308058 1036,4 L1023.5,4 C1023.59855,2.89660691 1023.59855,2.22994025 1023.5,2 C1023.35218,1.65508963 1023.37624,1.35553037 1023,1 C1022.85009,0.858345525 1022.51676,0.691678858 1022,0.5 L1015.5,0.5 Z"/>
    <polygon fill="#161F28" points="977 .5 976.5 .5 976 .5 977.5 2 977.5 .5"/>
    <polygon fill="#161F28" points="974.5 .5 973 .5 977.5 5.5 977.5 4"/>
    <polygon fill="#161F28" points="971 .5 969.5 .5 977.5 8.5 977.5 7"/>
    <polygon fill="#161F28" points="969.5 2.5 969.5 4.5 977.5 12.5 977.5 10.5"/>
    <polygon fill="#161F28" points="969.5 6.5 969.5 8.5 977.5 16 977.5 14"/>
    <polygon fill="#161F28" points="969.5 10 969.5 12 974.5 16.5 976.5 16.5"/>
    <polygon fill="#161F28" points="969.5 13.5 969.5 15 971.25 16.5 973 16.5"/>
    <polygon fill="#161F28" points="1014 .5 1013.5 .5 1013 .5 1014.5 2 1014.5 .5"/>
    <polygon fill="#161F28" points="1011.5 .5 1010 .5 1014.5 5.5 1014.5 4"/>
    <polygon fill="#161F28" points="1008 .5 1006.5 .5 1014.5 8.5 1014.5 7"/>
    <polygon fill="#161F28" points="1006.5 2.5 1006.5 4.5 1014.5 12.5 1014.5 10.5"/>
    <polygon fill="#161F28" points="1006.5 6.5 1006.5 8.5 1014.5 16 1014.5 14"/>
    <polygon fill="#161F28" points="1006.5 10 1006.5 12 1011.5 16.5 1013.5 16.5"/>
    <polygon fill="#161F28" points="1006.5 13.5 1006.5 15 1008.25 16.5 1010 16.5"/>
  </g>
</svg>
