<svg xmlns="http://www.w3.org/2000/svg" width="1366" height="168" viewBox="0 0 1366 168">
  <g fill="none" fill-rule="evenodd">
    <rect width="1366" height="163" y="2" fill="#161F28"/>
    <g transform="translate(-130 78)">
      <polygon fill="#636C78" points="550.5 .5 558.5 .5 558.5 17 550.5 17"/>
      <polygon fill="#636C78" points="587 .5 595.5 .5 595.5 17 587 17"/>
      <path fill="#8F9BA9" d="M0.5,5 L540,5 L540,2 C540.172255,1.49441189 540.338921,1.16107856 540.5,1 C540.661079,0.838921441 540.994412,0.672254774 541.5,0.5 L549.5,0.5 L549.5,17 L542,17 C541.206936,16.8218685 540.706936,16.6552018 540.5,16.5 C540.293064,16.3447982 540.126398,16.0114648 540,15.5 L540,12 L0.5,12 L0.5,5 Z"/>
      <polygon fill="#8F9BA9" points="559.5 .5 559.5 17 586.5 17 586.5 .5"/>
      <path fill="#8F9BA9" d="M596.5,0.5 L596.5,17 L603,17 C603.490506,16.8428277 603.823839,16.676161 604,16.5 C604.176161,16.323839 604.342828,15.823839 604.5,15 L604.5,13 L617,13 C617.53263,12.8453819 617.865964,12.6787153 618,12.5 C618.134036,12.3212847 618.300703,11.8212847 618.5,11 L621.5,11 C621.611789,11.7784559 621.778456,12.2784559 622,12.5 C622.221544,12.7215441 622.721544,12.8882107 623.5,13 L630,13 C631.482259,12.1844076 632.482259,11.5177409 633,11 C633.517741,10.4822591 634.017741,9.64892578 634.5,8.5 C633.971424,7.25761467 633.471424,6.42428134 633,6 C632.528576,5.57571866 631.36191,4.909052 629.5,4 L623,4 C622.501115,4.38702991 622.167782,4.72036324 622,5 C621.832218,5.27963676 621.665551,5.77963676 621.5,6.5 L618.5,6.5 C618.336818,5.78358609 618.170152,5.28358609 618,5 C617.829848,4.71641391 617.496515,4.38308058 617,4 L604.5,4 C604.598546,2.89660691 604.598546,2.22994025 604.5,2 C604.352181,1.65508963 604.376242,1.35553037 604,1 C603.850093,0.858345525 603.51676,0.691678858 603,0.5 L596.5,0.5 Z"/>
      <polygon fill="#8F9BA9" points="558 .5 557.5 .5 557 .5 558.5 2 558.5 .5"/>
      <polygon fill="#8F9BA9" points="555.5 .5 554 .5 558.5 5.5 558.5 4"/>
      <polygon fill="#8F9BA9" points="552 .5 550.5 .5 558.5 8.5 558.5 7"/>
      <polygon fill="#8F9BA9" points="550.5 2.5 550.5 4.5 558.5 12.5 558.5 10.5"/>
      <polygon fill="#8F9BA9" points="550.5 6.5 550.5 8.5 558.5 16 558.5 14"/>
      <polygon fill="#8F9BA9" points="550.5 10 550.5 12 555.5 16.5 557.5 16.5"/>
      <polygon fill="#8F9BA9" points="550.5 13.5 550.5 15 552.25 16.5 554 16.5"/>
      <polygon fill="#8F9BA9" points="595 .5 594.5 .5 594 .5 595.5 2 595.5 .5"/>
      <polygon fill="#8F9BA9" points="592.5 .5 591 .5 595.5 5.5 595.5 4"/>
      <polygon fill="#8F9BA9" points="589 .5 587.5 .5 595.5 8.5 595.5 7"/>
      <polygon fill="#8F9BA9" points="587.5 2.5 587.5 4.5 595.5 12.5 595.5 10.5"/>
      <polygon fill="#8F9BA9" points="587.5 6.5 587.5 8.5 595.5 16 595.5 14"/>
      <polygon fill="#8F9BA9" points="587.5 10 587.5 12 592.5 16.5 594.5 16.5"/>
      <polygon fill="#8F9BA9" points="587.5 13.5 587.5 15 589.25 16.5 591 16.5"/>
    </g>
    <g transform="matrix(-1 0 0 1 1496 80)">
      <polygon fill="#636C78" points="550.5 .5 558.5 .5 558.5 17 550.5 17"/>
      <polygon fill="#636C78" points="587 .5 595.5 .5 595.5 17 587 17"/>
      <path fill="#8F9BA9" d="M0.5,5 L540,5 L540,2 C540.172255,1.49441189 540.338921,1.16107856 540.5,1 C540.661079,0.838921441 540.994412,0.672254774 541.5,0.5 L549.5,0.5 L549.5,17 L542,17 C541.206936,16.8218685 540.706936,16.6552018 540.5,16.5 C540.293064,16.3447982 540.126398,16.0114648 540,15.5 L540,12 L0.5,12 L0.5,5 Z"/>
      <polygon fill="#8F9BA9" points="559.5 .5 559.5 17 586.5 17 586.5 .5"/>
      <path fill="#8F9BA9" d="M596.5,0.5 L596.5,17 L603,17 C603.490506,16.8428277 603.823839,16.676161 604,16.5 C604.176161,16.323839 604.342828,15.823839 604.5,15 L604.5,13 L617,13 C617.53263,12.8453819 617.865964,12.6787153 618,12.5 C618.134036,12.3212847 618.300703,11.8212847 618.5,11 L621.5,11 C621.611789,11.7784559 621.778456,12.2784559 622,12.5 C622.221544,12.7215441 622.721544,12.8882107 623.5,13 L630,13 C631.482259,12.1844076 632.482259,11.5177409 633,11 C633.517741,10.4822591 634.017741,9.64892578 634.5,8.5 C633.971424,7.25761467 633.471424,6.42428134 633,6 C632.528576,5.57571866 631.36191,4.909052 629.5,4 L623,4 C622.501115,4.38702991 622.167782,4.72036324 622,5 C621.832218,5.27963676 621.665551,5.77963676 621.5,6.5 L618.5,6.5 C618.336818,5.78358609 618.170152,5.28358609 618,5 C617.829848,4.71641391 617.496515,4.38308058 617,4 L604.5,4 C604.598546,2.89660691 604.598546,2.22994025 604.5,2 C604.352181,1.65508963 604.376242,1.35553037 604,1 C603.850093,0.858345525 603.51676,0.691678858 603,0.5 L596.5,0.5 Z"/>
      <polygon fill="#8F9BA9" points="558 .5 557.5 .5 557 .5 558.5 2 558.5 .5"/>
      <polygon fill="#8F9BA9" points="555.5 .5 554 .5 558.5 5.5 558.5 4"/>
      <polygon fill="#8F9BA9" points="552 .5 550.5 .5 558.5 8.5 558.5 7"/>
      <polygon fill="#8F9BA9" points="550.5 2.5 550.5 4.5 558.5 12.5 558.5 10.5"/>
      <polygon fill="#8F9BA9" points="550.5 6.5 550.5 8.5 558.5 16 558.5 14"/>
      <polygon fill="#8F9BA9" points="550.5 10 550.5 12 555.5 16.5 557.5 16.5"/>
      <polygon fill="#8F9BA9" points="550.5 13.5 550.5 15 552.25 16.5 554 16.5"/>
      <polygon fill="#8F9BA9" points="595 .5 594.5 .5 594 .5 595.5 2 595.5 .5"/>
      <polygon fill="#8F9BA9" points="592.5 .5 591 .5 595.5 5.5 595.5 4"/>
      <polygon fill="#8F9BA9" points="589 .5 587.5 .5 595.5 8.5 595.5 7"/>
      <polygon fill="#8F9BA9" points="587.5 2.5 587.5 4.5 595.5 12.5 595.5 10.5"/>
      <polygon fill="#8F9BA9" points="587.5 6.5 587.5 8.5 595.5 16 595.5 14"/>
      <polygon fill="#8F9BA9" points="587.5 10 587.5 12 592.5 16.5 594.5 16.5"/>
      <polygon fill="#8F9BA9" points="587.5 13.5 587.5 15 589.25 16.5 591 16.5"/>
    </g>
  </g>
</svg>
